<?xml version="1.0" encoding="utf-8"?>
<!-- Generator: Adobe Illustrator 22.0.0, SVG Export Plug-In . SVG Version: 6.00 Build 0)  -->
<svg version="1.1" id="Слой_1" xmlns="http://www.w3.org/2000/svg" xmlns:xlink="http://www.w3.org/1999/xlink" x="0px" y="0px"
	 viewBox="0 0 260.9 409.9" style="enable-background:new 0 0 260.9 409.9;" xml:space="preserve">
<style type="text/css">
	.st0{fill:#6335C7;}
</style>
<path class="st0" d="M222.8,38.7C198.3,14.1,165.7,0.4,131,0.3c-0.2,0-0.4,0-0.7,0C62.5,0.3,5.4,53.1,0.2,120.7
	c-0.3,3.3,2.2,6.2,5.6,6.5c3.3,0.3,6.2-2.2,6.5-5.5C17,60.3,68.9,12.5,130.4,12.5c0.2,0,0.4,0,0.6,0c65,0.3,117.8,53.5,117.8,118.4
	c0,37-16.8,71.2-46.2,93.8c-10.7,8.3-17.1,21.3-17.1,34.8v6.1h-15.7V130.1V130c0-0.2,0-0.4,0-0.6c0-0.1,0-0.1,0-0.2
	c-0.1-0.5-0.2-0.9-0.3-1.4c0-0.1-0.1-0.1-0.1-0.2c-0.1-0.1-0.1-0.3-0.2-0.4c0-0.1-0.1-0.1-0.1-0.2c0,0-0.1-0.1-0.1-0.2l-31.5-51.4
	c-1.1-1.8-3-2.9-5.1-2.9s-4,1.1-5.1,2.9l-31.6,51.4c0,0.1-0.1,0.1-0.1,0.2c0,0.1-0.1,0.1-0.1,0.2c-0.1,0.1-0.1,0.3-0.2,0.4
	c0,0.1-0.1,0.1-0.1,0.2c-0.2,0.4-0.3,0.9-0.3,1.4c0,0.1,0,0.1,0,0.2c0,0.2,0,0.4,0,0.6v0.1v22.1c0,3.3,2.7,6,6,6s6-2.7,6-6v-12.7
	l19.5,8.9v116.9h-19.5v-89.6c0-3.3-2.7-6-6-6s-6,2.7-6,6v89.8H75.2v-5.8c0-13.7-6.4-26.8-17-35c-25.9-19.9-42.5-49.9-45.7-82.2
	c-0.3-3.3-3.3-5.8-6.6-5.4c-3.3,0.3-5.7,3.3-5.4,6.6c3.5,35.6,21.9,68.6,50.3,90.6c7.7,5.9,12.3,15.4,12.3,25.4V298c0,3.3,2.7,6,6,6
	h122.4c3.3,0,6-2.7,6-6v-38.6c0-9.8,4.6-19.2,12.4-25.2c32.3-24.9,50.9-62.6,50.9-103.4C260.8,96.1,247.3,63.4,222.8,38.7
	L222.8,38.7z M132.2,90.2l9,14.6h-18L132.2,90.2z M109.4,127.4l6.5-10.5h32.8l6.4,10.5l-22.9,10.5L109.4,127.4z M157.7,139.5v125.8
	h-19.5V148.4L157.7,139.5z M185.5,291.9H75.2v-14.4h110.3V291.9z"/>
<path class="st0" d="M191.5,311.2H69.1c-3.3,0-6,2.7-6,6v24.9c0,3.3,2.7,6,6,6h122.4c3.3,0,6-2.7,6-6v-24.9
	C197.6,313.9,194.9,311.2,191.5,311.2L191.5,311.2z M185.5,336.1H75.2v-12.8h110.3V336.1z"/>
<path class="st0" d="M191.5,355.3H69.1c-3.3,0-6,2.7-6,6v3.7c0,24.7,20.1,44.9,44.9,44.9h44.8c24.7,0,44.9-20.1,44.9-44.9v-3.7
	C197.6,358,194.9,355.3,191.5,355.3L191.5,355.3z M152.7,397.8h-44.8c-17.3,0-31.5-13.5-32.7-30.5h110.2
	C184.2,384.4,170,397.8,152.7,397.8L152.7,397.8z"/>
</svg>
