<?xml version="1.0" encoding="utf-8"?>
<!-- Generator: Adobe Illustrator 22.0.0, SVG Export Plug-In . SVG Version: 6.00 Build 0)  -->
<svg version="1.1" id="Слой_1" xmlns="http://www.w3.org/2000/svg" xmlns:xlink="http://www.w3.org/1999/xlink" x="0px" y="0px"
	 viewBox="0 0 50.7 50.9" style="enable-background:new 0 0 50.7 50.9;" xml:space="preserve">
<style type="text/css">
	.st0{fill:#FFFFFF;}
</style>
<g>
	<path class="st0" d="M20.6,41.3c5.1,0,9.8-1.9,13.4-5l13.9,13.9c0.3,0.3,0.7,0.5,1.1,0.5c0.4,0,0.8-0.2,1.1-0.5s0.5-0.7,0.5-1.1
		c0-0.4-0.2-0.8-0.5-1.1L36.2,34.1c3.1-3.6,5-8.3,5-13.4C41.2,9.3,32,0.1,20.6,0.1C9.2,0.1,0,9.3,0,20.7C0,32,9.2,41.3,20.6,41.3
		L20.6,41.3z M20.6,3.3c9.6,0,17.4,7.8,17.4,17.4c0,9.6-7.8,17.4-17.4,17.4c-9.6,0-17.4-7.8-17.4-17.4C3.2,11.1,11,3.3,20.6,3.3
		L20.6,3.3z"/>
	<path class="st0" d="M14.4,22.3h4v4c0,0.9,0.7,1.6,1.6,1.6c0.9,0,1.6-0.7,1.6-1.6v-4h4c0.9,0,1.6-0.7,1.6-1.6
		c0-0.9-0.7-1.6-1.6-1.6h-4v-4c0-0.9-0.7-1.6-1.6-1.6c-0.9,0-1.6,0.7-1.6,1.6v4h-4c-0.9,0-1.6,0.7-1.6,1.6
		C12.8,21.6,13.5,22.3,14.4,22.3L14.4,22.3z"/>
</g>
</svg>
