<svg xmlns="http://www.w3.org/2000/svg" viewBox="0 0 260.9 409.9"><path d="M222.8 38.7C198.3 14.1 165.7.4 131 .3h-.7C62.5.3 5.4 53.1.2 120.7c-.3 3.3 2.2 6.2 5.6 6.5 3.3.3 6.2-2.2 6.5-5.5C17 60.3 68.9 12.5 130.4 12.5h.6c65 .3 117.8 53.5 117.8 118.4 0 37-16.8 71.2-46.2 93.8-10.7 8.3-17.1 21.3-17.1 34.8v6.1h-15.7V129.2c-.1-.5-.2-.9-.3-1.4 0-.1-.1-.1-.1-.2-.1-.1-.1-.3-.2-.4 0-.1-.1-.1-.1-.2 0 0-.1-.1-.1-.2l-31.5-51.4c-1.1-1.8-3-2.9-5.1-2.9s-4 1.1-5.1 2.9l-31.6 51.4c0 .1-.1.1-.1.2s-.1.1-.1.2c-.1.1-.1.3-.2.4 0 .1-.1.1-.1.2-.2.4-.3.9-.3 1.4v23c0 3.3 2.7 6 6 6s6-2.7 6-6v-12.7l19.5 8.9v116.9h-19.5v-89.6c0-3.3-2.7-6-6-6s-6 2.7-6 6v89.8H75.2v-5.8c0-13.7-6.4-26.8-17-35-25.9-19.9-42.5-49.9-45.7-82.2-.3-3.3-3.3-5.8-6.6-5.4-3.3.3-5.7 3.3-5.4 6.6 3.5 35.6 21.9 68.6 50.3 90.6 7.7 5.9 12.3 15.4 12.3 25.4V298c0 3.3 2.7 6 6 6h122.4c3.3 0 6-2.7 6-6v-38.6c0-9.8 4.6-19.2 12.4-25.2 32.3-24.9 50.9-62.6 50.9-103.4 0-34.7-13.5-67.4-38-92.1zm-90.6 51.5l9 14.6h-18l9-14.6zm-22.8 37.2l6.5-10.5h32.8l6.4 10.5-22.9 10.5-22.8-10.5zm48.3 12.1v125.8h-19.5V148.4l19.5-8.9zm27.8 152.4H75.2v-14.4h110.3v14.4zm6 19.3H69.1c-3.3 0-6 2.7-6 6v24.9c0 3.3 2.7 6 6 6h122.4c3.3 0 6-2.7 6-6v-24.9c.1-3.3-2.6-6-6-6zm-6 24.9H75.2v-12.8h110.3v12.8zm6 19.2H69.1c-3.3 0-6 2.7-6 6v3.7c0 24.7 20.1 44.9 44.9 44.9h44.8c24.7 0 44.9-20.1 44.9-44.9v-3.7c-.1-3.3-2.8-6-6.2-6zm-38.8 42.5h-44.8c-17.3 0-31.5-13.5-32.7-30.5h110.2c-1.2 17.1-15.4 30.5-32.7 30.5z" fill="#6335c7"/></svg>