<svg id="Слой_1" xmlns="http://www.w3.org/2000/svg" viewBox="0 0 50.7 50.9"><style>.st0{fill:#fff}</style><path class="st0" d="M20.6 41.3c5.1 0 9.8-1.9 13.4-5l13.9 13.9c.3.3.7.5 1.1.5.4 0 .8-.2 1.1-.5s.5-.7.5-1.1c0-.4-.2-.8-.5-1.1L36.2 34.1c3.1-3.6 5-8.3 5-13.4C41.2 9.3 32 .1 20.6.1 9.2.1 0 9.3 0 20.7 0 32 9.2 41.3 20.6 41.3zm0-38c9.6 0 17.4 7.8 17.4 17.4 0 9.6-7.8 17.4-17.4 17.4-9.6 0-17.4-7.8-17.4-17.4 0-9.6 7.8-17.4 17.4-17.4z"/><path class="st0" d="M14.4 22.3h4v4c0 .9.7 1.6 1.6 1.6.9 0 1.6-.7 1.6-1.6v-4h4c.9 0 1.6-.7 1.6-1.6 0-.9-.7-1.6-1.6-1.6h-4v-4c0-.9-.7-1.6-1.6-1.6-.9 0-1.6.7-1.6 1.6v4h-4c-.9 0-1.6.7-1.6 1.6 0 .9.7 1.6 1.6 1.6z"/></svg>